<?xml version="1.0" encoding="utf-8"?>
<!-- Generator: Adobe Illustrator 18.0.0, SVG Export Plug-In . SVG Version: 6.00 Build 0)  -->
<!DOCTYPE svg PUBLIC "-//W3C//DTD SVG 1.1//EN" "http://www.w3.org/Graphics/SVG/1.1/DTD/svg11.dtd">
<svg version="1.1" id="Layer_1" xmlns="http://www.w3.org/2000/svg" xmlns:xlink="http://www.w3.org/1999/xlink" x="0px" y="0px"
	 viewBox="0 0 174 174" enable-background="new 0 0 174 174" xml:space="preserve">
<g>
	<circle fill="#2F98CE" cx="90.3" cy="83.7" r="73.5"/>
	<g>
		<g>
			<g>
				<path fill="#FFFFFF" d="M16.9,120.7c-3.5,3.5-3.5,9.3,0,12.8l1.8,1.8l-1.8,1.8c-3.5,3.5-3.5,9.3,0,12.8c3.5,3.5,9.3,3.5,12.8,0
					l1.8-1.8l12.8-12.8l-12.8-12.8l-1.8-1.8C26.2,117.2,20.4,117.2,16.9,120.7z"/>
				<path fill="#106586" d="M23.3,118.1c2.3,0,4.7,0.9,6.4,2.7l1.8,1.8l12.8,12.8l-12.8,12.8l-1.8,1.8c-1.8,1.8-4.1,2.7-6.4,2.7
					s-4.7-0.9-6.4-2.7c-3.5-3.5-3.5-9.3,0-12.8l1.8-1.8l-1.8-1.8c-3.5-3.5-3.5-9.3,0-12.8C18.6,118.9,21,118.1,23.3,118.1 M23.3,114
					c-3.5,0-6.8,1.4-9.3,3.8c-2.5,2.5-3.8,5.8-3.8,9.3c0,3,1,5.9,2.9,8.2c-4.1,5.1-3.8,12.7,1,17.5c2.5,2.5,5.8,3.8,9.3,3.8
					c3.5,0,6.8-1.4,9.3-3.8l1.8-1.8l12.8-12.8c1.6-1.6,1.6-4.1,0-5.7l-12.8-12.8l-1.8-1.8C30.1,115.4,26.8,114,23.3,114L23.3,114z"
					/>
			</g>
			<path fill="#106586" d="M151.9,137.3H47.5c-1.1,0-2-0.9-2-2s0.9-2,2-2h104.4c1.1,0,2,0.9,2,2S153,137.3,151.9,137.3z"/>
			<g>
				<rect x="133.2" y="135.3" fill="#DE5F58" width="12.3" height="26.5"/>
				<path fill="#106586" d="M145.5,163.8h-12.3c-1.1,0-2-0.9-2-2v-26.5c0-1.1,0.9-2,2-2h12.3c1.1,0,2,0.9,2,2v26.5
					C147.5,162.9,146.6,163.8,145.5,163.8z M135.2,159.8h8.3v-22.4h-8.3V159.8z"/>
			</g>
			<g>
				<rect x="114.2" y="135.3" fill="#DE5F58" width="12.3" height="18.7"/>
				<path fill="#106586" d="M126.5,156h-12.3c-1.1,0-2-0.9-2-2v-18.7c0-1.1,0.9-2,2-2h12.3c1.1,0,2,0.9,2,2V154
					C128.5,155.1,127.6,156,126.5,156z M116.2,152h8.3v-14.6h-8.3V152z"/>
			</g>
		</g>
		<g>
			<path fill="#FFFFFF" d="M128.2,121.5H52.8c-1.9,0-3.5-1.6-3.5-3.5v-53c0-1.9,1.6-3.5,3.5-3.5h75.4c1.9,0,3.5,1.6,3.5,3.5v53
				C131.7,119.9,130.1,121.5,128.2,121.5z"/>
			<path fill="#106586" d="M128.2,123.5H52.8c-3.1,0-5.5-2.5-5.5-5.5v-53c0-3.1,2.5-5.5,5.5-5.5h75.4c3.1,0,5.5,2.5,5.5,5.5v53
				C133.7,121,131.2,123.5,128.2,123.5z M52.8,63.4c-0.8,0-1.5,0.7-1.5,1.5v53c0,0.8,0.7,1.5,1.5,1.5h75.4c0.8,0,1.5-0.7,1.5-1.5
				v-53c0-0.8-0.7-1.5-1.5-1.5H52.8z"/>
		</g>
		<path fill="#DE5F58" d="M55.3,112.7V89.1h70.3v23.6c0,1.5-1.2,2.7-2.7,2.7H58C56.5,115.4,55.3,114.2,55.3,112.7z"/>
		<g>
			<path fill="#2F98CE" d="M105.1,79.1c-3.5-3.5-9.3-3.5-12.8,0l-1.8,1.8l-1.8-1.8c-3.5-3.5-9.3-3.5-12.8,0c-3.5,3.5-3.5,9.3,0,12.8
				l1.8,1.8l12.8,12.8l12.8-12.8l1.8-1.8C108.6,88.4,108.6,82.6,105.1,79.1z"/>
			<path fill="#106586" d="M98.7,80c1.5,0,2.8,0.6,3.8,1.6c2.1,2.1,2.1,5.6,0,7.7l-1.8,1.8l-10.3,10.3L80.2,91.1l-1.8-1.8
				c-2.1-2.1-2.1-5.6,0-7.7c1-1,2.4-1.6,3.8-1.6s2.8,0.6,3.8,1.6l1.8,1.8l2.6,2.6l2.6-2.6l1.8-1.8C95.9,80.6,97.2,80,98.7,80
				 M98.7,76.4c-2.3,0-4.7,0.9-6.4,2.7l-1.8,1.8l-1.8-1.8c-1.8-1.8-4.1-2.7-6.4-2.7c-2.3,0-4.7,0.9-6.4,2.7c-3.5,3.5-3.5,9.3,0,12.8
				l1.8,1.8l12.8,12.8l12.8-12.8l1.8-1.8c3.5-3.5,3.5-9.3,0-12.8C103.3,77.3,101,76.4,98.7,76.4L98.7,76.4z"/>
		</g>
		<path fill="#FFFFFF" d="M115.3,57.8h-4v-10c0-11.4-9.3-20.7-20.7-20.7s-20.7,9.3-20.7,20.7v10h-4v-10C65.7,34.1,76.8,23,90.5,23
			s24.8,11.1,24.8,24.8V57.8z"/>
	</g>
</g>
</svg>
