<?xml version="1.0" encoding="utf-8"?>
<!-- Generator: Adobe Illustrator 18.0.0, SVG Export Plug-In . SVG Version: 6.00 Build 0)  -->
<!DOCTYPE svg PUBLIC "-//W3C//DTD SVG 1.1//EN" "http://www.w3.org/Graphics/SVG/1.1/DTD/svg11.dtd">
<svg version="1.1" id="Layer_1" xmlns="http://www.w3.org/2000/svg" xmlns:xlink="http://www.w3.org/1999/xlink" x="0px" y="0px"
	 viewBox="0 0 273 268.5" enable-background="new 0 0 273 268.5" xml:space="preserve">
<g>
	<g>
		<g>
			<path fill="#DE5F58" d="M179.1,99.5c-10.6-10.6-27.8-10.6-38.4,0l-5.3,5.3l-5.3-5.3c-10.6-10.6-27.8-10.6-38.4,0
				c-10.6,10.6-10.6,27.8,0,38.4l5.3,5.3l38.4,38.4l38.4-38.4l5.3-5.3C189.7,127.3,189.7,110.1,179.1,99.5z"/>
			<path fill="#FFFFFF" d="M194.1,159.5c-38.3-10.8-78.9-10.8-117.3,0c0-8.7,0-17.3,0-26c38.3-10.8,78.9-10.8,117.3,0
				C194.1,142.2,194.1,150.9,194.1,159.5z"/>
			<path fill="#106581" d="M210.8,150.5c-5-1.9-10.2-3.5-15.3-5v-12c0-0.6-0.4-1.2-1-1.3c-19.2-5.4-39-8.2-59-8.2
				c-20,0-39.8,2.8-59,8.2c-0.6,0.2-1,0.7-1,1.3v12c-5.1,1.5-10.3,3.2-15.3,5c-0.5,0.2-0.9,0.7-0.9,1.3v25.7c0,0.4,0.2,0.9,0.6,1.1
				c0.2,0.2,0.5,0.2,0.8,0.2c0.2,0,0.3,0,0.5-0.1c10.2-3.8,20.9-6.8,31.5-9c0,0,0,0,0,0c0.1,0,0.3-0.1,0.4-0.1c0,0,0,0,0,0
				c0,0,0,0,0.1,0c0.1-0.1,0.2-0.1,0.3-0.2c0,0,0.1-0.1,0.1-0.1c0.1-0.1,0.1-0.2,0.1-0.3c0,0,0-0.1,0-0.1c0-0.1,0.1-0.3,0.1-0.4
				v-11.6c13.7-2.7,27.7-4.1,41.7-4.1c14,0,28,1.4,41.7,4.1v11.6c0,0.1,0,0.3,0.1,0.4c0,0,0,0.1,0,0.1c0,0.1,0.1,0.2,0.1,0.3
				c0,0,0.1,0.1,0.1,0.1c0.1,0.1,0.2,0.2,0.3,0.2c0,0,0,0,0.1,0c0,0,0,0,0,0c0.1,0.1,0.2,0.1,0.4,0.1c0,0,0,0,0,0
				c10.7,2.2,21.3,5.2,31.5,9c0.2,0.1,0.3,0.1,0.5,0.1c0.3,0,0.6-0.1,0.8-0.2c0.4-0.3,0.6-0.7,0.6-1.1v-25.7
				C211.7,151.2,211.3,150.7,210.8,150.5z M62,175.6v-22.8c4.4-1.6,8.9-3.1,13.4-4.4v11.2c0,0,0,0.1,0,0.1c0,0,0,0.1,0,0.1
				c0,0.1,0.1,0.2,0.1,0.3c0,0,0,0,0,0c0.1,0.1,0.1,0.2,0.2,0.3c0,0,0.1,0,0.1,0.1c0,0,0.1,0.1,0.1,0.1c0,0,0,0,0.1,0
				c0,0,0,0,0.1,0.1l12.5,7.2C79.6,169.9,70.7,172.5,62,175.6z M178.9,154.4C178.9,154.4,178.9,154.4,178.9,154.4
				C178.9,154.4,178.9,154.4,178.9,154.4C178.9,154.4,178.8,154.4,178.9,154.4c-14.3-2.9-28.8-4.4-43.4-4.4
				c-14.6,0-29.1,1.5-43.3,4.4c0,0,0,0,0,0c0,0,0,0,0,0c0,0,0,0,0,0l0,0c-4.6,1-9.3,2.1-13.9,3.3v-23.2c18.6-5.2,37.9-7.8,57.3-7.8
				c19.4,0,38.6,2.6,57.2,7.8v23.2C188.2,156.5,183.6,155.4,178.9,154.4L178.9,154.4z M208.9,175.6c-8.7-3.1-17.6-5.7-26.6-7.7
				l12.5-7.2c0.5-0.3,0.8-0.8,0.7-1.4c0,0,0,0,0-0.1v-10.9c4.5,1.3,9,2.8,13.5,4.4V175.6z"/>
			<path fill="#FFFFFF" d="M91.4,120c-0.7,0-1.2-0.6-1.2-1.2c0-10.5,8.7-19.1,19.3-19.1c0.7,0,1.2,0.6,1.2,1.2s-0.6,1.2-1.2,1.2
				c-9.3,0-16.9,7.4-16.9,16.6C92.6,119.4,92.1,120,91.4,120z"/>
		</g>
		<g>
			<path fill="#106581" d="M89.1,149.6c1.8-4.4,3.6-8.8,5.4-13.2c0.3-0.7,0.8-1.2,1.5-1.3c0,0,0.1,0,0.1,0c0.7-0.1,1.2,0.2,1.5,0.8
				c1.8,3.7,3.6,7.4,5.4,11.2c0.1,0.2,0.1,0.4,0.1,0.5c0,0.7-0.5,1.3-1.2,1.4c-0.6,0.1-1-0.2-1.2-0.7c-0.4-0.8-0.8-1.7-1.2-2.5
				c-2.4,0.4-4.7,0.8-7,1.3c-0.4,1-0.8,2-1.2,3.1c-0.2,0.6-0.6,0.9-1.2,1.1c-0.7,0.1-1.2-0.3-1.2-0.9
				C88.9,150.1,89,149.9,89.1,149.6z M98.5,143.6c-0.8-1.8-1.7-3.6-2.5-5.4c-0.8,2.1-1.7,4.3-2.5,6.4
				C95.1,144.2,96.8,143.9,98.5,143.6z"/>
			<path fill="#106581" d="M111.3,134.3c0-0.7,0.6-1.4,1.3-1.4c1.4-0.1,2.8-0.3,4.2-0.4c4.6-0.4,7.8,2.6,7.8,6.7c0,0,0,0,0,0
				c0,4.1-3.2,7.4-7.8,7.8c-1.4,0.1-2.8,0.3-4.2,0.4c-0.7,0.1-1.3-0.4-1.3-1.1C111.3,142.3,111.3,138.3,111.3,134.3z M116.8,144.7
				c3.1-0.3,5.1-2.4,5.1-5.3c0,0,0,0,0,0c0-2.9-2-4.8-5.1-4.6c-1,0.1-1.9,0.2-2.9,0.3c0,3.3,0,6.6,0,9.9
				C114.9,144.8,115.8,144.8,116.8,144.7z"/>
			<path fill="#106581" d="M133.1,144.9c0-4,0-8,0-12c0-0.7,0.6-1.3,1.3-1.3c2.8,0,5.7,0,8.5,0.1c0.6,0,1.2,0.6,1.2,1.2
				c0,0.6-0.5,1.1-1.2,1.1c-2.4-0.1-4.8-0.1-7.3-0.1c0,1.3,0,2.5,0,3.8c2.1,0,4.2,0,6.3,0.1c0.6,0,1.2,0.6,1.2,1.2
				c0,0.6-0.5,1.1-1.2,1.1c-2.1-0.1-4.2-0.1-6.3-0.1c0,1.3,0,2.6,0,3.9c2.5,0,4.9,0,7.4,0.1c0.6,0,1.2,0.6,1.2,1.2
				c0,0.6-0.5,1.1-1.2,1.1c-2.9-0.1-5.8-0.1-8.6-0.1C133.7,146.2,133.1,145.6,133.1,144.9z"/>
			<path fill="#106581" d="M152.6,133.5c0-0.7,0.6-1.2,1.3-1.2c0.7,0.1,1.3,0.7,1.3,1.4c0,3.7,0,7.4,0,11.1c2.2,0.2,4.4,0.4,6.6,0.7
				c0.6,0.1,1.2,0.7,1.2,1.3c0,0.6-0.5,1.1-1.2,1c-2.6-0.3-5.3-0.6-7.9-0.8c-0.7-0.1-1.3-0.7-1.3-1.4
				C152.6,141.6,152.6,137.5,152.6,133.5z"/>
			<path fill="#106581" d="M170.9,147.9c0-4,0-8,0-12c0-0.7,0.6-1.2,1.3-1.1c2.8,0.5,5.6,1,8.4,1.7c0.6,0.1,1.1,0.8,1.1,1.4
				c0,0.6-0.5,1-1.1,0.9c-2.4-0.5-4.8-1-7.1-1.4c0,1.3,0,2.5,0,3.8c2.1,0.4,4.2,0.8,6.2,1.2c0.6,0.1,1.1,0.8,1.1,1.4
				c0,0.6-0.5,1-1.1,0.9c-2.1-0.4-4.1-0.8-6.2-1.2c0,1.3,0,2.6,0,3.9c2.4,0.4,4.8,0.9,7.3,1.4c0.6,0.1,1.1,0.8,1.1,1.4
				c0,0.6-0.5,1-1.1,0.9c-2.8-0.6-5.7-1.2-8.5-1.7C171.5,149.3,170.9,148.6,170.9,147.9z"/>
		</g>
	</g>
	<path fill="#106581" d="M233.2,255.4c-3.2,0-4.7-2.4-6-4.4c-1.2-1.9-2.1-3.1-3.7-3.1c-1.6,0-2.4,1.2-3.7,3.1
		c-1.3,1.9-2.8,4.4-6,4.4c-3.2,0-4.7-2.4-6-4.4c-1.2-1.9-2.1-3.1-3.7-3.1c-1.6,0-2.4,1.2-3.7,3.1c-1.3,1.9-2.8,4.4-6,4.4
		c-3.2,0-4.7-2.4-6-4.4c-1.2-1.9-2.1-3.1-3.7-3.1s-2.4,1.2-3.7,3.1c-1.3,1.9-2.8,4.4-6,4.4s-4.7-2.4-6-4.4c-1.2-1.9-2.1-3.1-3.7-3.1
		s-2.4,1.2-3.7,3.1c-1.3,1.9-2.8,4.4-6,4.4s-4.7-2.4-6-4.4c-1.2-1.9-2.1-3.1-3.7-3.1c-1.6,0-2.4,1.2-3.7,3.1c-1.3,1.9-2.8,4.4-6,4.4
		c-3.2,0-4.7-2.4-6-4.4c-1.2-1.9-2.1-3.1-3.7-3.1c-1.6,0-2.4,1.2-3.7,3.1c-1.3,1.9-2.8,4.4-6,4.4c-3.2,0-4.7-2.4-6-4.4
		c-1.2-1.9-2.1-3.1-3.7-3.1c-1.6,0-2.4,1.2-3.7,3.1c-1.3,1.9-2.8,4.4-6,4.4c-3.2,0-4.7-2.4-6-4.4c-1.2-1.9-2.1-3.1-3.7-3.1
		c-1.6,0-2.4,1.2-3.7,3.1c-1.3,1.9-2.8,4.4-6,4.4s-4.7-2.4-6-4.4c-1.2-1.9-2.1-3.1-3.7-3.1c-1.6,0-2.4,1.2-3.7,3.1
		c-1.3,1.9-2.8,4.4-6,4.4s-4.7-2.4-6-4.4c-1.2-1.9-2.1-3.1-3.7-3.1c-1.6,0-2.4,1.2-3.7,3.1c-1.3,1.9-2.8,4.4-6,4.4
		c-3.2,0-4.7-2.4-6-4.4c-1.2-1.9-2.1-3.1-3.7-3.1c-1.6,0-3.5,1.9-5.2,3.5c-1.8,1.8-3.6,3.6-5.6,3.6c0,0,0,0,0,0
		c-0.9,0-1.8-0.4-2.5-1.1c-0.7-0.7-1.8-2.3-0.6-4.6c0.7-1.2,1.8-2.3,3-3.5c1.7-1.7,3.5-3.5,3.5-5.2c0-1.6-1.2-2.4-3.1-3.7
		c-1.9-1.3-4.4-2.8-4.4-6c0-3.2,2.4-4.7,4.4-6c1.9-1.2,3.1-2.1,3.1-3.7c0-1.6-1.2-2.4-3.1-3.7c-1.9-1.3-4.4-2.8-4.4-6
		c0-3.2,2.4-4.7,4.4-6c1.9-1.2,3.1-2.1,3.1-3.7s-1.2-2.4-3.1-3.7c-1.9-1.3-4.4-2.8-4.4-6s2.4-4.7,4.4-6c1.9-1.2,3.1-2.1,3.1-3.7
		c0-1.6-1.2-2.4-3.1-3.7c-1.9-1.3-4.4-2.8-4.4-6c0-3.2,2.4-4.7,4.4-6c1.9-1.2,3.1-2.1,3.1-3.7s-1.2-2.4-3.1-3.7
		c-1.9-1.3-4.4-2.8-4.4-6c0-3.2,2.4-4.7,4.4-6c1.9-1.2,3.1-2.1,3.1-3.7c0-1.6-1.2-2.4-3.1-3.7c-1.9-1.3-4.4-2.8-4.4-6
		c0-3.2,2.4-4.7,4.4-6c1.9-1.2,3.1-2.1,3.1-3.7s-1.2-2.4-3.1-3.7c-1.9-1.3-4.4-2.8-4.4-6s2.4-4.7,4.4-6c1.9-1.2,3.1-2.1,3.1-3.7
		c0-1.6-1.2-2.4-3.1-3.7c-1.9-1.3-4.4-2.8-4.4-6c0-3.2,2.4-4.7,4.4-6c1.9-1.2,3.1-2.1,3.1-3.7c0-1.6-1.2-2.4-3.1-3.7
		c-1.9-1.3-4.4-2.8-4.4-6s2.4-4.7,4.4-6c1.9-1.2,3.1-2.1,3.1-3.7c0-1.6-1.2-2.4-3.1-3.7c-1.9-1.3-4.4-2.8-4.4-6s2.4-4.7,4.4-6
		c1.9-1.2,3.1-2.1,3.1-3.7c0-1.6-1.2-2.4-3.1-3.7c-1.9-1.3-4.4-2.8-4.4-6c0-3.2,2.4-4.7,4.4-6c1.9-1.2,3.1-2.1,3.1-3.7
		c0-1.6-1.9-3.5-3.5-5.2c-2.2-2.2-5.3-5.3-2.4-8.1c0.7-0.7,1.6-1.1,2.5-1.1c2,0,3.7,1.7,5.6,3.6c1.7,1.7,3.5,3.5,5.2,3.5
		c1.6,0,2.4-1.2,3.7-3.1c1.3-1.9,2.8-4.4,6-4.4c3.2,0,4.7,2.4,6,4.4c1.2,1.9,2.1,3.1,3.7,3.1c1.6,0,2.4-1.2,3.7-3.1
		c1.3-1.9,2.8-4.4,6-4.4s4.7,2.4,6,4.4c1.2,1.9,2.1,3.1,3.7,3.1c1.6,0,2.4-1.2,3.7-3.1c1.3-1.9,2.8-4.4,6-4.4s4.7,2.4,6,4.4
		c1.2,1.9,2.1,3.1,3.7,3.1c1.6,0,2.4-1.2,3.7-3.1c1.3-1.9,2.8-4.4,6-4.4s4.7,2.4,6,4.4c1.2,1.9,2.1,3.1,3.7,3.1
		c1.6,0,2.4-1.2,3.7-3.1c1.3-1.9,2.8-4.4,6-4.4c3.2,0,4.7,2.4,6,4.4c1.2,1.9,2.1,3.1,3.7,3.1c1.6,0,2.4-1.2,3.7-3.1
		c1.3-1.9,2.8-4.4,6-4.4c3.2,0,4.7,2.4,6,4.4c1.2,1.9,2.1,3.1,3.7,3.1c1.6,0,2.4-1.2,3.7-3.1c1.3-1.9,2.8-4.4,6-4.4
		c3.2,0,4.7,2.4,6,4.4c1.2,1.9,2.1,3.1,3.7,3.1s2.4-1.2,3.7-3.1c1.3-1.9,2.8-4.4,6-4.4s4.7,2.4,6,4.4c1.2,1.9,2.1,3.1,3.7,3.1
		c1.6,0,2.4-1.2,3.7-3.1c1.3-1.9,2.8-4.4,6-4.4s4.7,2.4,6,4.4c1.2,1.9,2.1,3.1,3.7,3.1c1.6,0,2.4-1.2,3.7-3.1c1.3-1.9,2.8-4.4,6-4.4
		c3.2,0,4.7,2.4,6,4.4c1.2,1.9,2.1,3.1,3.7,3.1c1.6,0,2.4-1.2,3.7-3.1c1.3-1.9,2.8-4.4,6-4.4c3.2,0,4.7,2.4,6,4.4
		c1.2,1.9,2.1,3.1,3.7,3.1c1.6,0,3.5-1.9,5.2-3.5c1.8-1.8,3.6-3.6,5.6-3.6c0.9,0,1.8,0.4,2.5,1.1c0.7,0.7,1.8,2.3,0.6,4.6
		c-0.7,1.2-1.8,2.3-3,3.5c-1.7,1.7-3.5,3.5-3.5,5.2c0,1.6,1.2,2.4,3.1,3.7c1.9,1.3,4.4,2.8,4.4,6c0,3.2-2.4,4.7-4.4,6
		c-1.9,1.2-3.1,2.1-3.1,3.7c0,1.6,1.2,2.4,3.1,3.7c1.9,1.3,4.4,2.8,4.4,6s-2.4,4.7-4.4,6c-1.9,1.2-3.1,2.1-3.1,3.7
		c0,1.6,1.2,2.4,3.1,3.7c1.9,1.3,4.4,2.8,4.4,6s-2.4,4.7-4.4,6c-1.9,1.2-3.1,2.1-3.1,3.7c0,1.6,1.2,2.4,3.1,3.7
		c1.9,1.3,4.4,2.8,4.4,6c0,3.2-2.4,4.7-4.4,6c-1.9,1.2-3.1,2.1-3.1,3.7c0,1.6,1.2,2.4,3.1,3.7c1.9,1.3,4.4,2.8,4.4,6
		c0,3.2-2.4,4.7-4.4,6c-1.9,1.2-3.1,2.1-3.1,3.7s1.2,2.4,3.1,3.7c1.9,1.3,4.4,2.8,4.4,6s-2.4,4.7-4.4,6c-1.9,1.2-3.1,2.1-3.1,3.7
		c0,1.6,1.2,2.4,3.1,3.7c1.9,1.3,4.4,2.8,4.4,6c0,3.2-2.4,4.7-4.4,6c-1.9,1.2-3.1,2.1-3.1,3.7c0,1.6,1.2,2.4,3.1,3.7
		c1.9,1.3,4.4,2.8,4.4,6s-2.4,4.7-4.4,6c-1.9,1.2-3.1,2.1-3.1,3.7c0,1.6,1.2,2.4,3.1,3.7c1.9,1.3,4.4,2.8,4.4,6s-2.4,4.7-4.4,6
		c-1.9,1.2-3.1,2.1-3.1,3.7c0,1.6,1.2,2.4,3.1,3.7c1.9,1.3,4.4,2.8,4.4,6s-2.4,4.7-4.4,6c-1.9,1.2-3.1,2.1-3.1,3.7
		c0,1.6,1.2,2.4,3.1,3.7c1.9,1.3,4.4,2.8,4.4,6c0,3-2.4,4.8-4.5,6.4c-2.3,1.8-3.3,2.7-2.9,4c0.8,2.5,2.7,4.2,4.3,5.7
		c1.5,1.4,2.8,2.5,2.9,4.2c0,1-0.4,1.9-1.3,2.7c-0.7,0.7-1.6,1.1-2.5,1.1c-2,0-3.7-1.7-5.6-3.6c-1.7-1.7-3.5-3.5-5.2-3.5
		c-1.6,0-2.4,1.2-3.7,3.1C237.9,252.9,236.3,255.4,233.2,255.4z M223.5,245.1c3.2,0,4.7,2.4,6,4.4c1.2,1.9,2.1,3.1,3.7,3.1
		c1.6,0,2.4-1.2,3.7-3.1c1.3-1.9,2.8-4.4,6-4.4c2.8,0,5.1,2.3,7.1,4.3c1.2,1.2,2.8,2.8,3.6,2.8c0.1,0,0.3,0,0.6-0.3
		c0.4-0.4,0.5-0.6,0.5-0.7c0-0.5-1.1-1.4-1.9-2.2c-1.7-1.5-4-3.6-5.1-6.8c-1.1-3.3,1.6-5.4,3.8-7c1.8-1.3,3.4-2.6,3.4-4.2
		c0-1.6-1.2-2.4-3.1-3.7c-1.9-1.3-4.4-2.8-4.4-6c0-3.2,2.4-4.7,4.4-6c1.9-1.2,3.1-2.1,3.1-3.7c0-1.6-1.2-2.4-3.1-3.7
		c-1.9-1.3-4.4-2.8-4.4-6c0-3.2,2.4-4.7,4.4-6c1.9-1.2,3.1-2.1,3.1-3.7s-1.2-2.4-3.1-3.7c-1.9-1.3-4.4-2.8-4.4-6
		c0-3.2,2.4-4.7,4.4-6c1.9-1.2,3.1-2.1,3.1-3.7s-1.2-2.4-3.1-3.7c-1.9-1.3-4.4-2.8-4.4-6c0-3.2,2.4-4.7,4.4-6
		c1.9-1.2,3.1-2.1,3.1-3.7s-1.2-2.4-3.1-3.7c-1.9-1.3-4.4-2.8-4.4-6c0-3.2,2.4-4.7,4.4-6c1.9-1.2,3.1-2.1,3.1-3.7
		c0-1.6-1.2-2.4-3.1-3.7c-1.9-1.3-4.4-2.8-4.4-6c0-3.2,2.4-4.7,4.4-6c1.9-1.2,3.1-2.1,3.1-3.7c0-1.6-1.2-2.4-3.1-3.7
		c-1.9-1.3-4.4-2.8-4.4-6c0-3.2,2.4-4.7,4.4-6c1.9-1.2,3.1-2.1,3.1-3.7c0-1.6-1.2-2.4-3.1-3.7c-1.9-1.3-4.4-2.8-4.4-6
		c0-3.2,2.4-4.7,4.4-6c1.9-1.2,3.1-2.1,3.1-3.7s-1.2-2.4-3.1-3.7c-1.9-1.3-4.4-2.8-4.4-6c0-3.2,2.4-4.7,4.4-6
		c1.9-1.2,3.1-2.1,3.1-3.7c0-1.6-1.2-2.4-3.1-3.7c-1.9-1.3-4.4-2.8-4.4-6c0-3.2,2.4-4.7,4.4-6c1.9-1.2,3.1-2.1,3.1-3.7
		c0-1.6-1.2-2.4-3.1-3.7c-1.9-1.3-4.4-2.8-4.4-6c0-2.8,2.3-5.1,4.3-7.1c1.1-1.1,2.1-2.1,2.5-2.9c0.4-0.7,0.2-1-0.1-1.3
		c-0.3-0.3-0.5-0.3-0.6-0.3c-0.9,0-2.4,1.5-3.6,2.8c-2,2-4.3,4.3-7.1,4.3c-3.2,0-4.7-2.4-6-4.4c-1.2-1.9-2.1-3.1-3.7-3.1
		c-1.6,0-2.4,1.2-3.7,3.1c-1.3,1.9-2.8,4.4-6,4.4s-4.7-2.4-6-4.4c-1.2-1.9-2.1-3.1-3.7-3.1c-1.6,0-2.4,1.2-3.7,3.1
		c-1.3,1.9-2.8,4.4-6,4.4c-3.2,0-4.7-2.4-6-4.4c-1.2-1.9-2.1-3.1-3.7-3.1s-2.4,1.2-3.7,3.1c-1.3,1.9-2.8,4.4-6,4.4
		c-3.2,0-4.7-2.4-6-4.4c-1.2-1.9-2.1-3.1-3.7-3.1s-2.4,1.2-3.7,3.1c-1.3,1.9-2.8,4.4-6,4.4c-3.2,0-4.7-2.4-6-4.4
		c-1.2-1.9-2.1-3.1-3.7-3.1c-1.6,0-2.4,1.2-3.7,3.1c-1.3,1.9-2.8,4.4-6,4.4c-3.2,0-4.7-2.4-6-4.4c-1.2-1.9-2.1-3.1-3.7-3.1
		c-1.6,0-2.4,1.2-3.7,3.1c-1.3,1.9-2.8,4.4-6,4.4c-3.2,0-4.7-2.4-6-4.4c-1.2-1.9-2.1-3.1-3.7-3.1c-1.6,0-2.4,1.2-3.7,3.1
		c-1.3,1.9-2.8,4.4-6,4.4c-3.2,0-4.7-2.4-6-4.4c-1.2-1.9-2.1-3.1-3.7-3.1s-2.4,1.2-3.7,3.1c-1.3,1.9-2.8,4.4-6,4.4
		c-3.2,0-4.7-2.4-6-4.4c-1.2-1.9-2.1-3.1-3.7-3.1S76,17.1,74.8,19c-1.3,1.9-2.8,4.4-6,4.4c-3.2,0-4.7-2.4-6-4.4
		c-1.2-1.9-2.1-3.1-3.7-3.1c-1.6,0-2.4,1.2-3.7,3.1c-1.3,1.9-2.8,4.4-6,4.4c-3.2,0-4.7-2.4-6-4.4c-1.2-1.9-2.1-3.1-3.7-3.1
		c-1.6,0-2.4,1.2-3.7,3.1c-1.3,1.9-2.8,4.4-6,4.4c-2.8,0-5.1-2.3-7.1-4.3c-1.2-1.2-2.8-2.8-3.6-2.8c-0.1,0-0.3,0-0.6,0.3
		c-0.7,0.7-0.2,1.5,2.4,4.2c2,2,4.3,4.3,4.3,7.1c0,3.2-2.4,4.7-4.4,6c-1.9,1.2-3.1,2.1-3.1,3.7c0,1.6,1.2,2.4,3.1,3.7
		c1.9,1.3,4.4,2.8,4.4,6c0,3.2-2.4,4.7-4.4,6c-1.9,1.2-3.1,2.1-3.1,3.7c0,1.6,1.2,2.4,3.1,3.7c1.9,1.3,4.4,2.8,4.4,6
		c0,3.2-2.4,4.7-4.4,6c-1.9,1.2-3.1,2.1-3.1,3.7s1.2,2.4,3.1,3.7c1.9,1.3,4.4,2.8,4.4,6c0,3.2-2.4,4.7-4.4,6
		c-1.9,1.2-3.1,2.1-3.1,3.7c0,1.6,1.2,2.4,3.1,3.7c1.9,1.3,4.4,2.8,4.4,6s-2.4,4.7-4.4,6c-1.9,1.2-3.1,2.1-3.1,3.7s1.2,2.4,3.1,3.7
		c1.9,1.3,4.4,2.8,4.4,6s-2.4,4.7-4.4,6c-1.9,1.2-3.1,2.1-3.1,3.7s1.2,2.4,3.1,3.7c1.9,1.3,4.4,2.8,4.4,6c0,3.2-2.4,4.7-4.4,6
		c-1.9,1.2-3.1,2.1-3.1,3.7c0,1.6,1.2,2.4,3.1,3.7c1.9,1.3,4.4,2.8,4.4,6s-2.4,4.7-4.4,6c-1.9,1.2-3.1,2.1-3.1,3.7
		c0,1.6,1.2,2.4,3.1,3.7c1.9,1.3,4.4,2.8,4.4,6c0,3.2-2.4,4.7-4.4,6c-1.9,1.2-3.1,2.1-3.1,3.7s1.2,2.4,3.1,3.7
		c1.9,1.3,4.4,2.8,4.4,6s-2.4,4.7-4.4,6c-1.9,1.2-3.1,2.1-3.1,3.7c0,1.6,1.2,2.4,3.1,3.7c1.9,1.3,4.4,2.8,4.4,6c0,3.2-2.4,4.7-4.4,6
		c-1.9,1.2-3.1,2.1-3.1,3.7c0,1.6,1.2,2.4,3.1,3.7c1.9,1.3,4.4,2.8,4.4,6c0,2.8-2.3,5.1-4.3,7.1c-1.1,1.1-2.1,2.1-2.5,2.9
		c-0.4,0.7-0.2,1,0.1,1.3c0.3,0.3,0.5,0.3,0.6,0.3c0,0,0,0,0,0c0.9,0,2.4-1.5,3.6-2.8c2-2,4.3-4.3,7.1-4.3c3.2,0,4.7,2.4,6,4.4
		c1.2,1.9,2.1,3.1,3.7,3.1c1.6,0,2.4-1.2,3.7-3.1c1.3-1.9,2.8-4.4,6-4.4c3.2,0,4.7,2.4,6,4.4c1.2,1.9,2.1,3.1,3.7,3.1
		c1.6,0,2.4-1.2,3.7-3.1c1.3-1.9,2.8-4.4,6-4.4c3.2,0,4.7,2.4,6,4.4c1.2,1.9,2.1,3.1,3.7,3.1c1.6,0,2.4-1.2,3.7-3.1
		c1.3-1.9,2.8-4.4,6-4.4c3.2,0,4.7,2.4,6,4.4c1.2,1.9,2.1,3.1,3.7,3.1c1.6,0,2.4-1.2,3.7-3.1c1.3-1.9,2.8-4.4,6-4.4
		c3.2,0,4.7,2.4,6,4.4c1.2,1.9,2.1,3.1,3.7,3.1s2.4-1.2,3.7-3.1c1.3-1.9,2.8-4.4,6-4.4c3.2,0,4.7,2.4,6,4.4c1.2,1.9,2.1,3.1,3.7,3.1
		c1.6,0,2.4-1.2,3.7-3.1c1.3-1.9,2.8-4.4,6-4.4c3.2,0,4.7,2.4,6,4.4c1.2,1.9,2.1,3.1,3.7,3.1s2.4-1.2,3.7-3.1c1.3-1.9,2.8-4.4,6-4.4
		s4.7,2.4,6,4.4c1.2,1.9,2.1,3.1,3.7,3.1s2.4-1.2,3.7-3.1c1.3-1.9,2.8-4.4,6-4.4s4.7,2.4,6,4.4c1.2,1.9,2.1,3.1,3.7,3.1
		c1.6,0,2.4-1.2,3.7-3.1c1.3-1.9,2.8-4.4,6-4.4c3.2,0,4.7,2.4,6,4.4c1.2,1.9,2.1,3.1,3.7,3.1c1.6,0,2.4-1.2,3.7-3.1
		C218.8,247.6,220.3,245.1,223.5,245.1z"/>
	<g>
		<path fill="#DE5F58" d="M96.9,49.2c1.1,0,2,0.8,2,1.9v0c0,1.1-0.9,1.9-2,1.9c-1.1,0-2-0.8-2-1.9v0C94.9,50.1,95.8,49.2,96.9,49.2z
			"/>
		<path fill="#DE5F58" d="M105.2,54.8l4.5-3.7c2-1.6,2.8-2.5,2.8-3.8c0-1.3-0.9-2.1-2.1-2.1c-1,0-1.7,0.4-2.6,1.4
			c-0.2,0.3-0.6,0.5-1.2,0.5c-0.9,0-1.6-0.7-1.6-1.6c0-0.4,0.2-0.8,0.4-1.1c1.3-1.5,2.8-2.3,5.2-2.3c3.3,0,5.5,1.9,5.5,4.9v0
			c0,2.7-1.4,4-4.2,6.2l-2.6,2h5.6c0.8,0,1.5,0.7,1.5,1.5s-0.7,1.5-1.5,1.5h-8.7c-1.1,0-1.9-0.6-1.9-1.7
			C104.3,55.9,104.6,55.3,105.2,54.8z"/>
		<path fill="#DE5F58" d="M121.9,50.3L121.9,50.3c0-4.7,2.9-8.3,7.1-8.3c4.2,0,7.1,3.6,7.1,8.2v0c0,4.6-2.9,8.3-7.1,8.3
			C124.7,58.5,121.9,54.9,121.9,50.3z M132.5,50.3L132.5,50.3c0-2.9-1.4-5.1-3.5-5.1c-2.1,0-3.5,2.1-3.5,5v0c0,2.9,1.4,5.1,3.5,5.1
			C131.2,55.3,132.5,53.2,132.5,50.3z"/>
		<path fill="#DE5F58" d="M144.5,45.6l-1.2,0.3c-0.2,0-0.4,0.1-0.6,0.1c-0.8,0-1.5-0.7-1.5-1.5c0-0.7,0.5-1.3,1.2-1.5l2.3-0.7
			c0.7-0.2,1.2-0.3,1.6-0.3h0c1,0,1.7,0.8,1.7,1.7v12.9c0,1-0.8,1.7-1.7,1.7c-1,0-1.7-0.8-1.7-1.7V45.6z"/>
		<path fill="#DE5F58" d="M156.4,56.8c-1.2-1.2-1.9-2.9-1.9-6v0c0-4.9,2.2-8.7,7-8.7c1.6,0,2.9,0.4,3.9,1c0.5,0.3,0.9,0.8,0.9,1.5
			c0,0.9-0.8,1.6-1.7,1.6c-0.3,0-0.6-0.1-0.9-0.3c-0.7-0.4-1.4-0.6-2.3-0.6c-2,0-3,1.6-3.2,3.7c0.8-0.5,1.7-1,3.3-1
			c3.2,0,5.6,1.8,5.6,5.1v0c0,3.3-2.6,5.5-6.1,5.5C158.9,58.5,157.5,57.9,156.4,56.8z M163.6,53.2L163.6,53.2c0-1.4-1-2.4-2.8-2.4
			c-1.7,0-2.7,1-2.7,2.3v0c0,1.3,1,2.4,2.8,2.4S163.6,54.5,163.6,53.2z"/>
		<path fill="#DE5F58" d="M174.8,49.2c1.1,0,2,0.8,2,1.9v0c0,1.1-0.9,1.9-2,1.9c-1.1,0-2-0.8-2-1.9v0
			C172.8,50.1,173.7,49.2,174.8,49.2z"/>
	</g>
	<g>
		<g>
			<path fill="#DE5F58" d="M51.7,225l5.6-12.6c0.4-0.9,1.1-1.4,2.1-1.4h0.2c1,0,1.6,0.5,2,1.4l5.6,12.6c0.1,0.3,0.2,0.5,0.2,0.7
				c0,0.9-0.7,1.7-1.7,1.7c-0.8,0-1.4-0.5-1.7-1.2l-1.1-2.5h-7l-1.1,2.6c-0.3,0.7-0.9,1.1-1.6,1.1c-0.9,0-1.6-0.7-1.6-1.6
				C51.5,225.5,51.6,225.2,51.7,225z M61.5,220.5l-2.2-5.3l-2.2,5.3H61.5z"/>
			<path fill="#DE5F58" d="M73.2,213c0-1,0.8-1.8,1.8-1.8h5.5c2,0,3.6,0.6,4.7,1.6c0.9,0.9,1.4,2.1,1.4,3.6v0c0,2.5-1.3,4.1-3.2,4.9
				l2.4,3c0.3,0.4,0.6,0.8,0.6,1.3c0,1-0.8,1.6-1.7,1.6c-0.8,0-1.3-0.4-1.7-0.9l-3.4-4.3h-2.8v3.5c0,1-0.8,1.8-1.8,1.8
				s-1.8-0.8-1.8-1.8V213z M80.3,219c1.7,0,2.7-0.9,2.7-2.3v0c0-1.5-1-2.3-2.8-2.3h-3.5v4.6H80.3z"/>
			<path fill="#DE5F58" d="M92.2,219.3L92.2,219.3c0-4.6,3.5-8.3,8.4-8.3c2.4,0,4,0.5,5.5,1.6c0.3,0.3,0.7,0.7,0.7,1.4
				c0,1-0.8,1.7-1.7,1.7c-0.5,0-0.8-0.2-1.1-0.4c-1-0.7-2-1.1-3.5-1.1c-2.6,0-4.6,2.3-4.6,5v0c0,2.9,2,5.1,4.8,5.1
				c1.3,0,2.4-0.3,3.3-1v-2.3h-2.4c-0.8,0-1.5-0.7-1.5-1.5s0.7-1.5,1.5-1.5h4c1,0,1.8,0.8,1.8,1.8v3.9c0,1-0.4,1.7-1.2,2.2
				c-1.3,0.8-3.2,1.6-5.6,1.6C95.6,227.5,92.2,224,92.2,219.3z"/>
			<path fill="#DE5F58" d="M114,225.5V213c0-1,0.8-1.8,1.8-1.8h8.9c0.9,0,1.6,0.7,1.6,1.6s-0.7,1.6-1.6,1.6h-7.1v3.2h6.1
				c0.9,0,1.6,0.7,1.6,1.6c0,0.9-0.7,1.6-1.6,1.6h-6.1v3.4h7.2c0.9,0,1.6,0.7,1.6,1.6c0,0.9-0.7,1.6-1.6,1.6h-9
				C114.8,227.2,114,226.4,114,225.5z"/>
			<path fill="#DE5F58" d="M132.5,212.9c0-1,0.8-1.8,1.8-1.8h0.4c0.8,0,1.3,0.4,1.8,1l6.8,8.9v-8.2c0-1,0.8-1.7,1.7-1.7
				s1.7,0.8,1.7,1.7v12.7c0,1-0.8,1.8-1.8,1.8h-0.1c-0.8,0-1.3-0.4-1.8-1l-7-9.2v8.6c0,1-0.8,1.7-1.7,1.7s-1.7-0.8-1.7-1.7V212.9z"
				/>
			<path fill="#DE5F58" d="M157.4,214.5H154c-0.9,0-1.6-0.7-1.6-1.6s0.7-1.6,1.6-1.6h10.3c0.9,0,1.6,0.7,1.6,1.6s-0.7,1.6-1.6,1.6
				h-3.4v11.1c0,1-0.8,1.8-1.8,1.8c-1,0-1.8-0.8-1.8-1.8V214.5z"/>
			<path fill="#DE5F58" d="M171.8,212.9c0-1,0.8-1.8,1.8-1.8c1,0,1.8,0.8,1.8,1.8v12.7c0,1-0.8,1.8-1.8,1.8c-1,0-1.8-0.8-1.8-1.8
				V212.9z"/>
			<path fill="#DE5F58" d="M182.5,212.9c0-1,0.8-1.8,1.8-1.8h0.4c0.8,0,1.3,0.4,1.8,1l6.8,8.9v-8.2c0-1,0.8-1.7,1.7-1.7
				s1.7,0.8,1.7,1.7v12.7c0,1-0.8,1.8-1.8,1.8h-0.1c-0.8,0-1.3-0.4-1.8-1l-7-9.2v8.6c0,1-0.8,1.7-1.7,1.7s-1.7-0.8-1.7-1.7V212.9z"
				/>
			<path fill="#DE5F58" d="M202.8,225l5.6-12.6c0.4-0.9,1.1-1.4,2.1-1.4h0.2c1,0,1.6,0.5,2,1.4l5.6,12.6c0.1,0.3,0.2,0.5,0.2,0.7
				c0,0.9-0.7,1.7-1.7,1.7c-0.8,0-1.4-0.5-1.7-1.2l-1.1-2.5h-7l-1.1,2.6c-0.3,0.7-0.9,1.1-1.6,1.1c-0.9,0-1.6-0.7-1.6-1.6
				C202.6,225.5,202.7,225.2,202.8,225z M212.7,220.5l-2.2-5.3l-2.2,5.3H212.7z"/>
		</g>
	</g>
	<g>
		<line fill="#FFFFFF" x1="31.7" y1="199.1" x2="241.3" y2="199.1"/>
		<path fill="#106581" d="M241.3,28.1H31.7c-0.8,0-1.4,0.6-1.4,1.4v209.6c0,0.8,0.6,1.4,1.4,1.4h209.6c0.8,0,1.4-0.6,1.4-1.4V29.4
			C242.7,28.7,242.1,28.1,241.3,28.1z M33.1,70.8h206.9v126.9H33.1V70.8z M239.9,30.8v37.3H33.1V30.8H239.9z M33.1,237.7v-37.3
			h206.9v37.3H33.1z"/>
	</g>
</g>
</svg>
