<?xml version="1.0" encoding="utf-8"?>
<!-- Generator: Adobe Illustrator 18.0.0, SVG Export Plug-In . SVG Version: 6.00 Build 0)  -->
<!DOCTYPE svg PUBLIC "-//W3C//DTD SVG 1.1//EN" "http://www.w3.org/Graphics/SVG/1.1/DTD/svg11.dtd">
<svg version="1.1" id="Layer_1" xmlns="http://www.w3.org/2000/svg" xmlns:xlink="http://www.w3.org/1999/xlink" x="0px" y="0px"
	 viewBox="0 0 271 175" enable-background="new 0 0 271 175" xml:space="preserve">
<g>
	<g>
		<g>
			<g>
				<g>
					<path fill="#FFFFFF" d="M156.3,75.4l-5.6-5.6c-11.3-11.3-29.5-11.3-40.7,0c-11.3,11.3-11.3,29.5,0,40.7l5.6,5.6l40.7,40.7v0
						V75.4L156.3,75.4z"/>
				</g>
				<path fill="#106586" d="M260.5,97c0.1-0.1,0.1-0.2,0.1-0.3c0,0,0-0.1,0-0.1c0-0.1,0.1-0.2,0.1-0.3c0-0.1,0-0.3,0-0.4l0,0
					c0,0,0,0,0,0c0,0,0-0.1,0-0.1c0-0.1,0-0.2-0.1-0.3c0-0.1-0.1-0.1-0.1-0.2c0-0.1,0-0.1-0.1-0.2c0-0.1-0.1-0.1-0.1-0.2
					c0-0.1-0.1-0.1-0.1-0.2c0,0,0,0-0.1-0.1c-0.1-0.1-0.2-0.2-0.2-0.2l-18.3-15c-0.9-0.8-2.3-0.6-3,0.3s-0.6,2.3,0.3,3l14.3,11.7
					L84.7,110.9L64.6,94.4c-0.4-0.4-1-0.5-1.6-0.5l-49.8,4.8c-0.9,0.1-1.6,0.7-1.8,1.5c-0.3,0.8,0,1.7,0.7,2.3L29,116.4l-3.4,0.3
					c-1.2,0.1-2,1.2-1.9,2.3c0.1,1.1,1,1.9,2.1,1.9c0.1,0,0.1,0,0.2,0l3.4-0.3l-13.9,16.9c-0.6,0.7-0.6,1.6-0.2,2.4
					c0.4,0.7,1.1,1.1,1.9,1.1c0.1,0,0.1,0,0.2,0l49.8-4.8c0.6-0.1,1.1-0.3,1.4-0.8l16.7-20.2l168.3-16.5l-11.7,14.2
					c-0.8,0.9-0.6,2.3,0.3,3c0.4,0.3,0.9,0.5,1.4,0.5c0.6,0,1.2-0.3,1.7-0.8l15-18.2C260.3,97.3,260.4,97.2,260.5,97
					C260.4,97,260.4,97,260.5,97z M18.8,102.5l43.8-4.3l16.1,13.3L35,115.8L18.8,102.5z M65.9,132l-43.8,4.3l13.3-16.2l43.8-4.3
					L65.9,132z"/>
				<g>
					<path fill="#FFFFFF" d="M202.6,69.8c-11.3-11.3-29.5-11.3-40.7,0l-5.6,5.6v81.5l40.7-40.7l5.6-5.6
						C213.9,99.3,213.9,81,202.6,69.8z"/>
				</g>
			</g>
			<path fill="#106586" d="M157.9,118.2c-0.4,0-0.8-0.1-1.2-0.4c-1-0.7-1.3-2-0.6-3c6.1-9.2,0.1-17.3,0.1-17.4
				c-0.7-0.9-0.5-2.3,0.4-3c0.9-0.7,2.3-0.5,3,0.4c2.8,3.6,6.3,12.9,0.1,22.3C159.2,117.9,158.6,118.2,157.9,118.2z"/>
		</g>
		<ellipse fill="#106581" cx="156.3" cy="165.1" rx="7.6" ry="2"/>
	</g>
	<path fill="#106586" d="M183.8,32.8C183.8,32.8,183.8,32.8,183.8,32.8l-10.8-17.3c0,0,0,0,0,0s0,0,0,0l-4.5-7.2c-0.6-1-2-1.3-3-0.7
		l-19.3,12.1c-0.5,0.3-0.8,0.8-1,1.3c-0.1,0.6,0,1.1,0.3,1.6l11.3,18.1c-1.6,0-3.1,0.5-4.5,1.3c-4.1,2.6-5.4,8-2.8,12.1
		c1.6,2.6,4.4,4.1,7.5,4.1c1.6,0,3.3-0.5,4.7-1.3c2-1.2,3.4-3.2,3.9-5.5c0.5-2.3,0.1-4.6-1.1-6.6c0,0,0,0,0,0l-9.7-15.5l15.7-9.8
		l5.7,9.1c-1.6,0-3.1,0.5-4.5,1.3c-4.1,2.6-5.4,8-2.8,12.1c1.6,2.6,4.4,4.1,7.5,4.1c1.6,0,3.3-0.5,4.7-1.3
		C185.2,42.3,186.4,36.9,183.8,32.8z M161.5,50.5c-0.3,1.2-1,2.2-2,2.8c-0.7,0.4-1.5,0.7-2.4,0.7c-1.6,0-3-0.8-3.8-2.1
		c-1.3-2.1-0.7-4.9,1.4-6.2c0.7-0.4,1.5-0.7,2.4-0.7c1.6,0,3,0.8,3.8,2.1C161.6,48.1,161.8,49.3,161.5,50.5z M152.6,25.7l-2.2-3.5
		l15.7-9.8l2.2,3.5L152.6,25.7z M178.8,41.3c-0.7,0.4-1.5,0.7-2.4,0.7c-1.6,0-3-0.8-3.8-2.1c-1.3-2.1-0.7-4.9,1.4-6.2
		c0.7-0.4,1.5-0.7,2.4-0.7c1.6,0,3,0.8,3.8,2.1l0,0c0,0,0,0,0,0C181.5,37.2,180.9,39.9,178.8,41.3z"/>
</g>
</svg>
