<?xml version="1.0" encoding="utf-8"?>
<!-- Generator: Adobe Illustrator 18.0.0, SVG Export Plug-In . SVG Version: 6.00 Build 0)  -->
<!DOCTYPE svg PUBLIC "-//W3C//DTD SVG 1.1//EN" "http://www.w3.org/Graphics/SVG/1.1/DTD/svg11.dtd">
<svg version="1.1" id="Layer_1" xmlns="http://www.w3.org/2000/svg" xmlns:xlink="http://www.w3.org/1999/xlink" x="0px" y="0px"
	 viewBox="0 0 248.8 220.8" enable-background="new 0 0 248.8 220.8" xml:space="preserve">
<g>
	<g>
		<path fill="#2F98CE" d="M128.5,201.1C128.5,201.1,128.5,201,128.5,201.1c-1,0-1.6-0.8-1.6-1.7C131,101.6,98.8,68.1,98.5,67.8
			c-0.6-0.6-0.6-1.6,0-2.3c0.6-0.6,1.6-0.6,2.3,0c0.3,0.3,8.6,8.8,16.4,29.6c12.9,34.5,14.2,75.8,13,104.4
			C130.1,200.4,129.4,201.1,128.5,201.1z"/>
		<path fill="#2F98CE" d="M117.1,148.7c-2.3,0-14-0.4-21.5-7.9c-8.1-8.1-7.9-21.2-7.9-21.7c0-0.9,0.7-1.6,1.6-1.6l0.2,0
			c2.3,0,14,0.4,21.5,7.9c8.1,8.1,7.9,21.2,7.9,21.7c0,0.9-0.7,1.6-1.6,1.6L117.1,148.7z M90.9,120.7c0.2,3.6,1.3,12.2,6.9,17.8
			c5.6,5.6,14.2,6.7,17.8,6.9c-0.2-3.6-1.3-12.2-6.9-17.8C103.1,122,94.5,120.9,90.9,120.7z"/>
		<path fill="#2F98CE" d="M129.7,111.7l-0.2,0c-0.9,0-1.6-0.7-1.6-1.6c0-0.6-0.2-13.6,7.9-21.7c7.5-7.5,19.3-7.9,21.5-7.9l0.2,0
			c0.9,0,1.6,0.7,1.6,1.6c0,0.6,0.2,13.6-7.9,21.7C143.7,111.3,131.9,111.7,129.7,111.7z M155.9,83.7c-3.5,0.2-12.2,1.3-17.8,6.9
			c-5.6,5.6-6.7,14.2-6.9,17.8c3.5-0.2,12.2-1.3,17.8-6.9C154.5,95.9,155.6,87.3,155.9,83.7z"/>
		<g>
			<circle fill="#106581" cx="89.2" cy="46.1" r="4.6"/>
			<path fill="#DE5F58" d="M91.9,14.1c0.2,2.5-0.6,23.7-3.2,23.8c-2.5,0.2-5.9-20.7-6-23.2c-0.2-2.5,1.8-4.7,4.3-4.9
				C89.6,9.6,91.8,11.5,91.9,14.1z"/>
			<path fill="#DE5F58" d="M113.7,25.3c-1.7,1.9-17.2,16.3-19.1,14.6c-1.9-1.7,10.5-18.8,12.2-20.7s4.6-2.1,6.5-0.4
				C115.2,20.5,115.4,23.4,113.7,25.3z"/>
			<path fill="#DE5F58" d="M121.2,48.8c-2.5,0.2-23.7-0.6-23.8-3.2c-0.2-2.5,20.7-5.9,23.2-6c2.5-0.2,4.7,1.8,4.9,4.3
				C125.7,46.4,123.7,48.6,121.2,48.8z"/>
			<path fill="#DE5F58" d="M109.9,70.6c-1.9-1.7-16.3-17.2-14.6-19.1S114.1,62,116,63.7c1.9,1.7,2.1,4.6,0.4,6.5
				S111.8,72.3,109.9,70.6z"/>
			<path fill="#DE5F58" d="M86.5,78c-0.2-2.5,0.6-23.7,3.2-23.8c2.5-0.2,5.9,20.7,6,23.2c0.2,2.5-1.8,4.7-4.3,4.9
				C88.8,82.5,86.7,80.6,86.5,78z"/>
			<path fill="#DE5F58" d="M64.7,66.8c1.7-1.9,17.2-16.3,19.1-14.6c1.9,1.7-10.5,18.8-12.2,20.7c-1.7,1.9-4.6,2.1-6.5,0.4
				C63.2,71.6,63,68.7,64.7,66.8z"/>
			<path fill="#DE5F58" d="M57.2,43.4c2.5-0.2,23.7,0.6,23.8,3.2c0.2,2.5-20.7,5.9-23.2,6c-2.5,0.2-4.7-1.8-4.9-4.3
				C52.7,45.7,54.7,43.5,57.2,43.4z"/>
			<path fill="#DE5F58" d="M68.5,21.5c1.9,1.7,16.3,17.2,14.6,19.1c-1.7,1.9-18.8-10.5-20.7-12.2c-1.9-1.7-2.1-4.6-0.4-6.5
				C63.7,20,66.6,19.8,68.5,21.5z"/>
		</g>
		<path fill="#DE5F58" d="M218.7,43.4c-0.1,3.7-5.1,6.1-6.5,9.3c-1.5,3.2-0.2,8.6-2.8,11c-2.6,2.4-7.8,0.7-11.2,1.9
			c-3.2,1.2-6.1,5.9-9.8,5.8c-3.7-0.1-6.1-5.1-9.3-6.5c-3.2-1.5-8.6-0.2-11-2.8c-2.4-2.6-0.7-7.8-1.9-11.2c-1.2-3.2-5.9-6.1-5.8-9.8
			c0.1-3.7,5.1-6.1,6.5-9.3c1.5-3.2,0.2-8.6,2.8-11c2.6-2.4,7.8-0.7,11.2-1.9c3.2-1.2,6.1-5.9,9.8-5.8c3.7,0.1,6.1,5.1,9.3,6.5
			c3.2,1.5,8.6,0.2,11,2.8c2.4,2.6,0.7,7.8,1.9,11.2C214.1,36.9,218.9,39.7,218.7,43.4z"/>
		<path fill="#106581" d="M149.3,201.1c-0.9,0-1.6-0.7-1.6-1.6c0-91.4,26.5-127.2,27.6-128.7c0.5-0.7,1.5-0.8,2.2-0.3
			c0.7,0.5,0.8,1.5,0.3,2.3c-0.3,0.4-27,36.6-27,126.7C150.9,200.3,150.2,201.1,149.3,201.1z"/>
		<circle fill="#FFFFFF" cx="189.6" cy="42.2" r="8.3"/>
		<path fill="#106581" d="M178.7,130.3c-8.7,0-16.2-4.3-16.5-4.5c-0.7-0.4-1-1.4-0.6-2.1c0.3-0.5,6.4-12,17.5-15.1
			c2-0.6,4.1-0.8,6.3-0.8c8.7,0,16.2,4.3,16.5,4.5c0.7,0.4,1,1.4,0.6,2.1c-0.3,0.5-6.4,12-17.5,15.1
			C183,130,180.9,130.3,178.7,130.3z M165.3,123.8c2.5,1.2,7.7,3.3,13.4,3.3c1.9,0,3.8-0.2,5.5-0.7c7.6-2.2,12.8-9.1,14.7-12.2
			c-2.5-1.2-7.7-3.3-13.4-3.3c-1.9,0-3.8,0.2-5.5,0.7C172.4,113.8,167.2,120.8,165.3,123.8z"/>
		<path fill="#106581" d="M147.9,136.4c-1.9,0-8.3-0.3-12.7-4.4c-5.1-4.8-5.2-12.6-5.2-13c0-0.9,0.7-1.6,1.5-1.6c0,0,0.2,0,0.6,0
			c1.9,0,8.3,0.3,12.7,4.4c5.1,4.8,5.2,12.6,5.2,13c0,0.9-0.7,1.6-1.5,1.6C148.5,136.4,148.3,136.4,147.9,136.4z M133.3,120.7
			c0.3,2.3,1.2,6.4,4.1,9c2.8,2.7,7,3.3,9.3,3.5c-0.3-2.3-1.2-6.4-4.1-9C139.8,121.5,135.6,120.8,133.3,120.7z"/>
		<g>
			<path fill="#106581" d="M86.4,169.2c-3.5-2.5-7.5-5.2-11.7-8.3c-18.8-13.9-20.1-42.3-20.2-47.4c14.1-0.8,25.3-12.5,25.3-26.8
				c0-0.9-0.7-1.6-1.6-1.6s-1.6,0.7-1.6,1.6c0,10.2-6.5,18.9-15.6,22.2c3.7-4.8,6.1-12.9,6.1-22.2c0-0.9-0.7-1.6-1.6-1.6
				s-1.6,0.7-1.6,1.6c0,12.7-4.6,21.7-9.4,23.4V91.7c0-0.9-0.7-1.6-1.6-1.6s-1.6,0.7-1.6,1.6V110c-4.8-1.7-9.4-10.6-9.4-23.4
				c0-0.9-0.7-1.6-1.6-1.6s-1.6,0.7-1.6,1.6c0,9.4,2.4,17.4,6.1,22.2c-9.1-3.3-15.6-12-15.6-22.2c0-0.9-0.7-1.6-1.6-1.6
				S26,85.8,26,86.7c0,14.3,11.2,26,25.3,26.8c0,2.4,0.3,9.7,2.4,18.3c3.4,14,10,24.9,19.1,31.6c4.2,3.1,8.2,5.9,11.8,8.4
				c14.4,10,23.1,16.1,23.1,27.6c0,0.9,0.7,1.6,1.6,1.6s1.6-0.7,1.6-1.6C110.9,186.3,101.2,179.5,86.4,169.2z"/>
			<circle fill="#2F98CE" cx="27.6" cy="79.4" r="1.8"/>
			<circle fill="#2F98CE" cx="40.2" cy="80" r="1.8"/>
			<circle fill="#2F98CE" cx="52.9" cy="85.3" r="1.8"/>
			<circle fill="#2F98CE" cx="65.3" cy="80.6" r="1.8"/>
			<circle fill="#2F98CE" cx="78.1" cy="80" r="1.8"/>
		</g>
		<path fill="#2F98CE" d="M22.7,136.3C29.4,138.5,33,146,33,146s-7.3,3.9-14,1.6c-6.7-2.2-10.3-9.7-10.3-9.7S16,134.1,22.7,136.3z"
			/>
		<path fill="#2F98CE" d="M69.2,181.6c6.2-3.3,14.1-0.7,14.1-0.7s-2.2,8-8.5,11.3c-6.2,3.3-14.1,0.7-14.1,0.7S62.9,185,69.2,181.6z"
			/>
		<path fill="#2F98CE" d="M183.7,150.8c6.2-3.3,14.1-0.7,14.1-0.7s-2.2,8-8.5,11.3c-6.2,3.3-14.1,0.7-14.1,0.7
			S177.5,154.1,183.7,150.8z"/>
		<path fill="#2F98CE" d="M220.4,81.8c6.2-3.3,14.1-0.7,14.1-0.7s-2.2,8-8.5,11.3s-14.1,0.7-14.1,0.7S214.1,85.1,220.4,81.8z"/>
		<path fill="#2F98CE" d="M145.3,48.9c-1.2-4.8,1.9-9.7,1.9-9.7s5.1,2.9,6.3,7.7s-1.9,9.7-1.9,9.7S146.5,53.7,145.3,48.9z"/>
		<circle fill="#2F98CE" cx="40.1" cy="166.4" r="2.1"/>
		<circle fill="#2F98CE" cx="106.4" cy="163" r="2.1"/>
		<circle fill="#2F98CE" cx="137.9" cy="68.3" r="2.1"/>
		<circle fill="#2F98CE" cx="153.7" cy="15.2" r="2.1"/>
		<circle fill="#2F98CE" cx="189.6" cy="85.3" r="2.1"/>
		<circle fill="#2F98CE" cx="170.4" cy="142" r="2.1"/>
		<circle fill="#2F98CE" cx="227.2" cy="137.7" r="2.1"/>
		<circle fill="#2F98CE" cx="12.8" cy="56.6" r="2.1"/>
		<circle fill="#2F98CE" cx="176.7" cy="182" r="2.1"/>
	</g>
	<path fill="#2F98CE" d="M168.9,205.6c-0.2,0-0.5,0-0.7,0c-4.3-0.1-6.6-1.4-8.6-2.4c-1.9-1-3.6-1.9-7.1-2.1
		c-3.6-0.1-5.3,0.7-7.2,1.6c-2,1-4.4,2-8.7,1.9c-4.3-0.1-6.6-1.4-8.6-2.4c-1.9-1-3.6-1.9-7.1-2.1c-3.6-0.1-5.3,0.7-7.2,1.6
		c-2,1-4.4,2-8.7,1.9c-4.3-0.1-6.6-1.4-8.6-2.4c-1.9-1-3.6-1.9-7.1-2.1c-0.9,0-1.6-0.8-1.6-1.7c0-0.9,0.8-1.6,1.7-1.6
		c4.3,0.1,6.6,1.4,8.6,2.4c1.9,1,3.6,1.9,7.1,2.1c3.6,0.1,5.3-0.7,7.2-1.6c2-1,4.4-2,8.7-1.9c4.3,0.1,6.6,1.4,8.6,2.4
		c1.9,1,3.6,1.9,7.1,2.1c3.6,0.1,5.3-0.7,7.2-1.6c2-1,4.4-2,8.7-1.9c4.3,0.1,6.6,1.4,8.6,2.4c1.9,1,3.6,1.9,7.1,2.1
		c3.6,0.1,5.3-0.7,7.2-1.6c2-1,4.4-2,8.7-1.9c0.9,0,1.6,0.8,1.6,1.7c0,0.9-0.8,1.5-1.7,1.6c-3.6-0.1-5.3,0.7-7.2,1.6
		C175,204.5,172.8,205.6,168.9,205.6z"/>
</g>
</svg>
