<?xml version="1.0" encoding="utf-8"?>
<!-- Generator: Adobe Illustrator 18.0.0, SVG Export Plug-In . SVG Version: 6.00 Build 0)  -->
<!DOCTYPE svg PUBLIC "-//W3C//DTD SVG 1.1//EN" "http://www.w3.org/Graphics/SVG/1.1/DTD/svg11.dtd">
<svg version="1.1" id="Layer_1" xmlns="http://www.w3.org/2000/svg" xmlns:xlink="http://www.w3.org/1999/xlink" x="0px" y="0px"
	 viewBox="0 0 374 220" enable-background="new 0 0 374 220" xml:space="preserve">
<g>
	<g>
		<g>
			<path fill="#FFFFFF" d="M277.3,205.4H149.7c-1.2,0-2.2-1-2.2-2.2V16.9c0-1.2,1-2.2,2.2-2.2h106.4c0.6,0,1.2,0.2,1.6,0.7
				l21.1,20.9c0.4,0.4,0.7,1,0.7,1.6v165.3C279.6,204.4,278.5,205.4,277.3,205.4z M152,200.9h123.1V38.7l-19.8-19.6H152V200.9z"/>
			<path fill="#2F98CE" d="M198.2,47.2h-26.5c-1.2,0-2.2-1-2.2-2.2s1-2.2,2.2-2.2h26.5c1.2,0,2.2,1,2.2,2.2S199.4,47.2,198.2,47.2z"
				/>
			<path fill="#2F98CE" d="M258.6,60.9h-86.9c-1.2,0-2.2-1-2.2-2.2s1-2.2,2.2-2.2h86.9c1.2,0,2.2,1,2.2,2.2S259.9,60.9,258.6,60.9z"
				/>
			<path fill="#2F98CE" d="M248.3,76.4h-76.6c-1.2,0-2.2-1-2.2-2.2s1-2.2,2.2-2.2h76.6c1.2,0,2.2,1,2.2,2.2S249.6,76.4,248.3,76.4z"
				/>
			<path fill="#2F98CE" d="M258.6,91.9h-86.9c-1.2,0-2.2-1-2.2-2.2s1-2.2,2.2-2.2h86.9c1.2,0,2.2,1,2.2,2.2S259.9,91.9,258.6,91.9z"
				/>
			<path fill="#2F98CE" d="M221.8,107.3h-50.1c-1.2,0-2.2-1-2.2-2.2s1-2.2,2.2-2.2h50.1c1.2,0,2.2,1,2.2,2.2S223,107.3,221.8,107.3z
				"/>
			<path fill="#2F98CE" d="M258.6,122.8h-86.9c-1.2,0-2.2-1-2.2-2.2s1-2.2,2.2-2.2h86.9c1.2,0,2.2,1,2.2,2.2
				S259.9,122.8,258.6,122.8z"/>
			<path fill="#2F98CE" d="M243.9,138.3h-72.2c-1.2,0-2.2-1-2.2-2.2s1-2.2,2.2-2.2h72.2c1.2,0,2.2,1,2.2,2.2
				S245.1,138.3,243.9,138.3z"/>
			<path fill="#2F98CE" d="M258.6,153.8h-86.9c-1.2,0-2.2-1-2.2-2.2s1-2.2,2.2-2.2h86.9c1.2,0,2.2,1,2.2,2.2
				S259.9,153.8,258.6,153.8z"/>
			<path fill="#2F98CE" d="M201.9,180.4h-30.2c-1.2,0-2.2-1-2.2-2.2s1-2.2,2.2-2.2h30.2c1.2,0,2.2,1,2.2,2.2
				S203.1,180.4,201.9,180.4z"/>
			<g>
				<path fill="#DE5F58" d="M253.4,168.3c-2.3-2.3-6-2.3-8.4,0l-1.1,1.1l-1.1-1.1c-2.3-2.3-6-2.3-8.4,0c-2.3,2.3-2.3,6,0,8.4
					l1.1,1.1l8.4,8.4l8.4-8.4l1.1-1.1C255.7,174.3,255.7,170.6,253.4,168.3z"/>
			</g>
			<path fill="#FFFFFF" d="M277.3,40h-21.1c-1.2,0-2.2-1-2.2-2.2V16.9c0-1.2,1-2.2,2.2-2.2s2.2,1,2.2,2.2v18.6h18.9
				c1.2,0,2.2,1,2.2,2.2S278.5,40,277.3,40z"/>
		</g>
		<path fill="#FFFFFF" d="M303.6,164.1h-4.8c-3.9,0-7-3.2-7-7v-76c0-1.2,1-2.2,2.2-2.2h14.3c1.2,0,2.2,1,2.2,2.2v76
			C310.7,160.9,307.5,164.1,303.6,164.1z M296.3,83.4v73.7c0,1.4,1.1,2.5,2.5,2.5h4.8c1.4,0,2.5-1.1,2.5-2.5V83.4H296.3z"/>
		<path fill="#DE5F58" d="M308.4,76.4h-14.3c-0.7,0-1.4-0.4-1.8-1c-0.4-0.6-0.5-1.4-0.3-2.1l7.2-19.9c0.3-0.9,1.2-1.5,2.1-1.5
			s1.8,0.6,2.1,1.5l7.2,19.9c0.2,0.7,0.1,1.5-0.3,2.1C309.8,76,309.2,76.4,308.4,76.4z M297.3,71.9h7.9l-4-11L297.3,71.9z"/>
	</g>
	<g>
		<path fill="#FFFFFF" d="M160.8,137.2H61.3c-1.2,0-2.2-1-2.2-2.2V83.1c0-1.2,1-2.2,2.2-2.2h99.6c1.2,0,2.2,1,2.2,2.2V135
			C163.1,136.2,162.1,137.2,160.8,137.2z M63.5,132.7h95.1V85.4H63.5V132.7z"/>
		<path fill="#FFFFFF" d="M111,115.8c-0.3,0-0.7-0.1-1-0.2L68,94.4c-1.1-0.6-1.6-1.9-1-3c0.6-1.1,1.9-1.6,3-1l41,20.7l41-20.7
			c1.1-0.6,2.5-0.1,3,1c0.6,1.1,0.1,2.5-1,3l-42,21.2C111.7,115.8,111.4,115.8,111,115.8z"/>
		<g>
			<path fill="#DE5F58" d="M81.9,117.4c-1-1-2.7-1-3.8,0l-0.5,0.5l-0.5-0.5c-1-1-2.7-1-3.8,0c-1,1-1,2.7,0,3.8l0.5,0.5l3.8,3.8
				l3.8-3.8l0.5-0.5C83,120.1,83,118.4,81.9,117.4z"/>
		</g>
	</g>
	<path fill="#2F98CE" d="M126.8,158.9H14.8c-1.2,0-2.2-1-2.2-2.2s1-2.2,2.2-2.2h112.1c1.2,0,2.2,1,2.2,2.2S128.1,158.9,126.8,158.9z
		"/>
	<path fill="#2F98CE" d="M126.8,176.3H61.3c-1.2,0-2.2-1-2.2-2.2s1-2.2,2.2-2.2h65.6c1.2,0,2.2,1,2.2,2.2S128.1,176.3,126.8,176.3z"
		/>
	<path fill="#2F98CE" d="M126.8,66.4H95.2c-1.2,0-2.2-1-2.2-2.2s1-2.2,2.2-2.2h31.6c1.2,0,2.2,1,2.2,2.2S128.1,66.4,126.8,66.4z"/>
	<path fill="#2F98CE" d="M126.8,47.2H53.4c-1.2,0-2.2-1-2.2-2.2s1-2.2,2.2-2.2h73.4c1.2,0,2.2,1,2.2,2.2S128.1,47.2,126.8,47.2z"/>
	<path fill="#2F98CE" d="M359.2,180.4h-65.1c-1.2,0-2.2-1-2.2-2.2s1-2.2,2.2-2.2h65.1c1.2,0,2.2,1,2.2,2.2S360.5,180.4,359.2,180.4z
		"/>
	<path fill="#2F98CE" d="M319.8,194.9h-25.7c-1.2,0-2.2-1-2.2-2.2s1-2.2,2.2-2.2h25.7c1.2,0,2.2,1,2.2,2.2S321,194.9,319.8,194.9z"
		/>
	<path fill="#2F98CE" d="M334.2,40h-40.1c-1.2,0-2.2-1-2.2-2.2s1-2.2,2.2-2.2h40.1c1.2,0,2.2,1,2.2,2.2S335.5,40,334.2,40z"/>
	<path fill="#2F98CE" d="M359.2,122.8h-32.6c-1.2,0-2.2-1-2.2-2.2s1-2.2,2.2-2.2h32.6c1.2,0,2.2,1,2.2,2.2S360.5,122.8,359.2,122.8z
		"/>
</g>
</svg>
